<svg width="16" height="18" viewBox="0 0 16 18" fill="none" xmlns="http://www.w3.org/2000/svg">
<path d="M3.5 5.91421C3.5 5.649 3.60536 5.39464 3.79289 5.20711L7.20711 1.79289C7.39464 1.60536 7.649 1.5 7.91421 1.5H11.5C12.0523 1.5 12.5 1.94772 12.5 2.5C12.5 8.09791 12.5 8.62014 12.5 13.4992C12.5 14.0514 12.0523 14.5 11.5 14.5H4.5C3.94772 14.5 3.5 14.0523 3.5 13.5V5.91421Z" fill="#EBECF0"/>
<path fill-rule="evenodd" clip-rule="evenodd" d="M7.91421 1C7.51639 1 7.13486 1.15803 6.85355 1.43934L3.43934 4.85355C3.15804 5.13486 3 5.51639 3 5.91421V13.5C3 14.3284 3.67157 15 4.5 15H11C12.1046 15 13 14.1046 13 13V2.5C13 1.67157 12.3284 1 11.5 1H7.91421ZM12 2.5C12 2.22386 11.7761 2 11.5 2H8V4.5C8 5.32843 7.32843 6 6.5 6H4V13.5C4 13.7761 4.22386 14 4.5 14H11C11.5523 14 12 13.5523 12 13V2.5ZM7 2.70711L4.70711 5H6.5C6.77614 5 7 4.77614 7 4.5V2.70711Z" fill="#6C707E"/>
<rect x="9" y="10.686" width="6" height="6.4" fill="white"/>
<path d="M9.00658 17.0184L9.37989 16.9418C9.73121 16.8688 10.0845 16.8034 10.4335 16.7218C10.7429 16.6461 11.0238 16.4827 11.2424 16.2512C11.4609 16.0196 11.6079 15.7299 11.6654 15.4168C11.6871 15.2899 11.6966 15.1612 11.6938 15.0324L11.8158 15.0024C12.1201 14.9354 12.3992 14.7834 12.6205 14.5641C12.8418 14.3447 12.9961 14.0671 13.0657 13.7634C13.0965 13.6483 13.1108 13.5293 13.1083 13.4101C13.1077 13.3781 13.1083 13.3458 13.1083 13.3084C13.1397 13.3008 13.1683 13.2928 13.1973 13.2861C13.5562 13.2057 13.8736 12.9978 14.0906 12.7011C14.2632 12.4732 14.3829 12.2098 14.4408 11.9299C14.4988 11.65 14.4936 11.3607 14.4256 11.0831C14.4186 11.0538 14.4139 11.0234 14.4053 10.9951C14.39 10.9453 14.3566 10.9029 14.3118 10.8763C14.2669 10.8497 14.2137 10.8407 14.1626 10.8511L13.1013 11.0684L11.9397 11.3071L10.6058 11.5811C10.1201 11.6809 9.63421 11.7801 9.14824 11.8788C9.10311 11.8945 9.05532 11.9013 9.00758 11.8988C9.00525 11.8741 9.00192 11.8521 9.00192 11.8308C9.00158 11.4574 9.00258 11.0831 9.00025 10.7094C8.99882 10.6886 9.00356 10.6677 9.01387 10.6495C9.02418 10.6313 9.03961 10.6166 9.05825 10.6071C9.25676 10.4859 9.46946 10.3896 9.69154 10.3204C9.99087 10.2236 10.2977 10.1516 10.6088 10.1051C10.7908 10.0768 10.9738 10.0604 11.1565 10.0401C11.547 10.003 11.9396 9.99161 12.3317 10.0061C12.497 10.0094 12.6624 10.0231 12.8274 10.0384C13.008 10.0554 13.189 10.0751 13.3683 10.1024C13.8293 10.1624 14.2791 10.2886 14.7039 10.4771C14.7912 10.5181 14.8736 10.5704 14.9586 10.6178C14.9724 10.6242 14.9837 10.6349 14.9911 10.6483C14.9984 10.6616 15.0012 10.677 14.9992 10.6921C14.9979 10.7101 14.9992 10.7288 14.9992 10.7464V17.2528C14.9992 17.3685 15.0142 17.3461 14.9119 17.4101C14.707 17.5327 14.4874 17.6287 14.2583 17.6958C13.9482 17.7932 13.6303 17.8635 13.308 17.9058C13.108 17.9325 12.908 17.9545 12.7067 17.9748C12.6144 17.9848 12.5214 17.9865 12.4284 17.9891C12.2404 17.9941 12.0524 18.0028 11.8647 17.9991C11.6528 17.9945 11.4408 17.9795 11.2291 17.9661C10.9472 17.947 10.6668 17.91 10.3895 17.8555C10.0191 17.7925 9.65801 17.6832 9.3149 17.5301C9.2239 17.4868 9.13824 17.4335 9.04925 17.3851C9.03373 17.3779 9.0208 17.3661 9.01222 17.3514C9.00363 17.3366 8.9998 17.3195 9.00125 17.3025C9.00392 17.2258 9.00125 17.1491 9.00225 17.0724C9.00225 17.0561 9.00558 17.0405 9.00758 17.0181L9.00658 17.0184ZM12.3347 13.4678C12.3386 13.5304 12.3284 13.593 12.3047 13.6511C12.2591 13.8064 12.1712 13.9459 12.0508 14.0542C11.9305 14.1625 11.7824 14.2353 11.6231 14.2644C11.1898 14.3578 10.7541 14.4434 10.3192 14.5328L10.1292 14.5708C10.0791 14.5788 10.031 14.5967 9.98792 14.6235C9.94481 14.6503 9.90746 14.6854 9.87807 14.7268C9.84867 14.7681 9.82782 14.8149 9.81671 14.8644C9.80561 14.9139 9.80449 14.9651 9.81341 15.0151C9.82233 15.065 9.84111 15.1127 9.86867 15.1553C9.89622 15.1979 9.93199 15.2346 9.97389 15.2632C10.0158 15.2919 10.063 15.3119 10.1127 15.3221C10.1624 15.3323 10.2137 15.3326 10.2635 15.3228C10.4618 15.2861 10.6588 15.2421 10.8565 15.2018C10.8778 15.1971 10.8991 15.1944 10.9261 15.1901C10.9134 15.3616 10.8495 15.5253 10.7428 15.6601C10.6006 15.8396 10.3974 15.9606 10.1718 16.0001C9.80409 16.0748 9.43656 16.1499 9.06925 16.2254C9.05191 16.2288 9.03391 16.2298 9.01725 16.2321C9.00125 16.1834 8.99692 12.7721 9.01258 12.6888L13.695 11.7278C13.6941 11.7478 13.6923 11.7679 13.6896 11.7878C13.6502 11.9724 13.5657 12.1444 13.4437 12.2884C13.3216 12.4307 13.1533 12.5256 12.9683 12.5564C12.5984 12.6284 12.2291 12.7064 11.8597 12.7821L11.5398 12.8474C11.4555 12.8631 11.3786 12.9061 11.3212 12.9697C11.2638 13.0334 11.229 13.1143 11.2221 13.1998C11.2167 13.2894 11.243 13.3781 11.2963 13.4503C11.3496 13.5225 11.4266 13.5738 11.5138 13.5951C11.6036 13.6102 11.6957 13.604 11.7828 13.5771L12.2744 13.4758C12.2921 13.4724 12.3104 13.4711 12.3344 13.4681L12.3347 13.4678Z" fill="#CC0000"/>
</svg>
