<svg width="36" height="36" viewBox="0 0 36 36" fill="none" xmlns="http://www.w3.org/2000/svg">
<g clip-path="url(#clip0_327_2)">
<path d="M4.52999 31.5826L6.20999 31.2376C7.79099 30.9091 9.38099 30.6151 10.9515 30.2476C12.3438 29.9073 13.6079 29.1718 14.5915 28.1299C15.5752 27.088 16.2364 25.784 16.4955 24.3751C16.5931 23.804 16.6358 23.2249 16.623 22.6456L17.172 22.5106C18.5417 22.2092 19.7976 21.5251 20.7934 20.538C21.7893 19.551 22.4841 18.3015 22.797 16.9351C22.9356 16.4168 23.0002 15.8815 22.989 15.3451C22.986 15.2011 22.989 15.0556 22.989 14.8876C23.13 14.8531 23.259 14.8171 23.3895 14.7871C25.0045 14.4255 26.433 13.49 27.4095 12.1546C28.1863 11.1293 28.7247 9.94372 28.9855 8.68422C29.2463 7.42472 29.2229 6.12296 28.917 4.87365C28.8855 4.74165 28.8645 4.60514 28.8255 4.47764C28.7567 4.25347 28.6067 4.06292 28.4048 3.94312C28.2029 3.82333 27.9636 3.78287 27.7335 3.82964L22.9575 4.80764L17.73 5.88165L11.727 7.11465C9.54099 7.56365 7.35449 8.01015 5.16749 8.45415C4.96437 8.52513 4.74934 8.5557 4.53449 8.54415C4.52399 8.43315 4.50899 8.33415 4.50899 8.23815C4.50749 6.55815 4.51199 4.87365 4.50149 3.19214C4.49506 3.09825 4.51637 3.00454 4.56278 2.92267C4.60918 2.84079 4.67863 2.77436 4.76249 2.73164C5.65585 2.18625 6.61306 1.75298 7.61249 1.44164C8.95956 1.00603 10.3402 0.681936 11.7405 0.472645C12.5595 0.345145 13.383 0.271645 14.205 0.180145C15.9627 0.0131054 17.7295 -0.0380053 19.494 0.0271447C20.238 0.0421447 20.982 0.103645 21.7245 0.172645C22.5375 0.249145 23.352 0.337645 24.159 0.460645C26.2333 0.730526 28.2577 1.29839 30.1695 2.14664C30.5625 2.33114 30.933 2.56664 31.3155 2.77964C31.3776 2.80871 31.4288 2.8568 31.4617 2.91695C31.4946 2.9771 31.5075 3.04618 31.4985 3.11414C31.4925 3.19514 31.4985 3.27914 31.4985 3.35864V32.6371C31.4985 33.1576 31.566 33.0571 31.1055 33.3451C30.1836 33.8967 29.1951 34.3287 28.164 34.6306C26.7687 35.0692 25.3378 35.3854 23.8875 35.5756C22.9875 35.6956 22.0875 35.7946 21.1815 35.8861C20.766 35.9311 20.3475 35.9386 19.929 35.9506C19.083 35.9731 18.237 36.0121 17.3925 35.9956C16.4385 35.9746 15.4845 35.9071 14.532 35.8471C13.2632 35.7611 12.0012 35.5948 10.7535 35.3491C9.08637 35.066 7.46158 34.5742 5.91749 33.8851C5.50799 33.6901 5.12249 33.4501 4.72199 33.2326C4.65217 33.2003 4.59399 33.1472 4.55535 33.0807C4.5167 33.0141 4.49947 32.9373 4.50599 32.8606C4.51799 32.5156 4.50599 32.1706 4.51049 31.8256C4.51049 31.7521 4.52549 31.6816 4.53449 31.5811L4.52999 31.5826ZM19.5075 15.6046C19.5251 15.8863 19.479 16.1683 19.3725 16.4296C19.167 17.1284 18.7715 17.7564 18.2299 18.2437C17.6883 18.731 17.0219 19.0585 16.305 19.1896C14.355 19.6096 12.3945 19.9951 10.437 20.3971L9.58199 20.5681C9.35641 20.6043 9.1403 20.685 8.94627 20.8055C8.75224 20.9261 8.58418 21.084 8.4519 21.2701C8.31961 21.4562 8.22575 21.6668 8.1758 21.8895C8.12584 22.1123 8.12078 22.3427 8.16093 22.5675C8.20107 22.7922 8.2856 23.0067 8.4096 23.1984C8.5336 23.3901 8.69457 23.5552 8.88313 23.6841C9.07168 23.813 9.28405 23.9031 9.50782 23.9491C9.7316 23.9951 9.96231 23.9962 10.1865 23.9521C11.079 23.7871 11.9655 23.5891 12.855 23.4076C12.951 23.3866 13.047 23.3746 13.1685 23.3551C13.1111 24.1267 12.8237 24.8633 12.3435 25.4701C11.7037 26.2779 10.7892 26.8225 9.77399 27.0001C8.11899 27.3361 6.46499 27.6741 4.81199 28.0141C4.73399 28.0291 4.65299 28.0336 4.57799 28.0441C4.50599 27.8251 4.48649 12.4741 4.55699 12.0991L25.629 7.77465C25.6251 7.86496 25.6171 7.95505 25.605 8.04465C25.4274 8.87534 25.0471 9.64929 24.498 10.2976C23.9486 10.9378 23.1915 11.3647 22.359 11.5036C20.694 11.8276 19.032 12.1786 17.37 12.5191L15.93 12.8131C15.5505 12.8835 15.2049 13.0769 14.9464 13.3636C14.688 13.6502 14.5313 14.014 14.5005 14.3986C14.4763 14.8019 14.5944 15.2009 14.8343 15.526C15.0741 15.8512 15.4205 16.0818 15.813 16.1776C16.2173 16.2457 16.6319 16.2179 17.0235 16.0966L19.236 15.6406C19.3155 15.6256 19.398 15.6196 19.506 15.6061L19.5075 15.6046Z" fill="#F24E1E"/>
</g>
<defs>
<clipPath id="clip0_327_2">
<rect width="36" height="36" fill="white"/>
</clipPath>
</defs>
</svg>
