<svg width="12" height="16" viewBox="0 0 12 16" fill="none" xmlns="http://www.w3.org/2000/svg">
<rect y="1.3501" width="12" height="12.6014" fill="white"/>
<path d="M0.0131646 13.8191L0.759787 13.6681C1.46241 13.5244 2.16904 13.3957 2.867 13.2349C3.48576 13.086 4.04755 12.7642 4.4847 12.3083C4.92185 11.8524 5.2157 11.2819 5.33085 10.6654C5.37422 10.4155 5.39319 10.1621 5.38751 9.90869L5.6315 9.84963C6.24023 9.71772 6.79837 9.4184 7.24094 8.98651C7.6835 8.55462 7.99229 8.00792 8.13135 7.41007C8.19294 7.18328 8.22167 6.94906 8.21668 6.71436C8.21535 6.65136 8.21668 6.58769 8.21668 6.51419C8.27934 6.49909 8.33667 6.48334 8.39467 6.47021C9.11239 6.31198 9.74727 5.90266 10.1812 5.31836C10.5265 4.86971 10.7658 4.35097 10.8816 3.79988C10.9975 3.24879 10.9871 2.6792 10.8512 2.13257C10.8372 2.07481 10.8279 2.01508 10.8105 1.9593C10.7799 1.86121 10.7133 1.77783 10.6236 1.72542C10.5339 1.673 10.4275 1.6553 10.3252 1.67577L8.20268 2.10369L5.87949 2.57362L3.21164 3.11311C2.24014 3.30957 1.26842 3.50494 0.296481 3.69921C0.206214 3.73027 0.110648 3.74365 0.0151645 3.73859C0.0104981 3.69002 0.00383188 3.64671 0.00383188 3.6047C0.00316525 2.86962 0.00516506 2.13257 0.000498665 1.39683C-0.00235919 1.35575 0.0071125 1.31474 0.0277357 1.27892C0.048359 1.24309 0.0792238 1.21403 0.116492 1.19534C0.513517 0.956699 0.938921 0.767123 1.38308 0.630898C1.98175 0.440294 2.59534 0.298487 3.21764 0.206912C3.58162 0.151125 3.9476 0.118965 4.31291 0.078929C5.09408 0.00584108 5.87929 -0.0165224 6.66344 0.0119839C6.99409 0.0185472 7.32473 0.0454565 7.65471 0.0756474C8.01603 0.10912 8.37801 0.147843 8.73665 0.201662C9.6585 0.319748 10.5582 0.568216 11.4078 0.93937C11.5825 1.0201 11.7471 1.12314 11.9171 1.21634C11.9447 1.22905 11.9675 1.2501 11.9821 1.27642C11.9967 1.30274 12.0025 1.33296 11.9985 1.3627C11.9958 1.39814 11.9985 1.43489 11.9985 1.46968V14.2805C11.9985 14.5082 12.0285 14.4642 11.8238 14.5903C11.4141 14.8316 10.9748 15.0206 10.5165 15.1527C9.89644 15.3446 9.26052 15.483 8.61599 15.5662C8.21601 15.6187 7.81604 15.662 7.4134 15.7021C7.22874 15.7218 7.04275 15.725 6.85676 15.7303C6.48078 15.7401 6.10481 15.7572 5.72949 15.75C5.30552 15.7408 4.88154 15.7113 4.45824 15.685C3.89437 15.6474 3.3335 15.5746 2.779 15.4671C2.0381 15.3432 1.31602 15.128 0.629795 14.8265C0.447806 14.7412 0.276482 14.6362 0.0984929 14.541C0.0674626 14.5269 0.0416068 14.5037 0.024434 14.4745C0.00726125 14.4454 -0.000396952 14.4118 0.00249856 14.3783C0.00783158 14.2273 0.00249857 14.0763 0.00449846 13.9254C0.00449846 13.8932 0.0111648 13.8624 0.0151645 13.8184L0.0131646 13.8191ZM6.66944 6.82791C6.67729 6.95115 6.65678 7.07454 6.60944 7.18889C6.51814 7.49461 6.34234 7.7694 6.10164 7.98262C5.86094 8.19585 5.56479 8.33913 5.24619 8.39652C4.37957 8.58029 3.50829 8.74897 2.63834 8.92486L2.25837 8.99968C2.15811 9.01551 2.06207 9.05083 1.97584 9.10356C1.88961 9.15629 1.81492 9.22539 1.75613 9.30683C1.69734 9.38826 1.65563 9.4804 1.63343 9.57786C1.61123 9.67532 1.60898 9.77615 1.62682 9.87448C1.64466 9.97281 1.68223 10.0667 1.73733 10.1505C1.79244 10.2344 1.86398 10.3067 1.94778 10.3631C2.03158 10.4195 2.12595 10.4589 2.22541 10.479C2.32486 10.4992 2.42739 10.4996 2.52702 10.4804C2.92366 10.4082 3.31764 10.3215 3.71295 10.2421C3.75561 10.2329 3.79828 10.2277 3.85227 10.2191C3.82675 10.5567 3.69905 10.879 3.48563 11.1446C3.2013 11.498 2.79488 11.7363 2.34369 11.814C1.60818 11.961 0.873114 12.1089 0.138491 12.2577C0.103826 12.2642 0.0678281 12.2662 0.0344967 12.2708C0.00249863 12.175 -0.00616749 5.45816 0.025164 5.29408L9.38995 3.4019C9.3882 3.44142 9.38464 3.48083 9.37928 3.52004C9.30035 3.88351 9.13135 4.22215 8.88731 4.50583C8.64315 4.78595 8.30667 4.97273 7.9367 5.03352C7.19674 5.17529 6.45812 5.32886 5.71949 5.47785L5.07953 5.60649C4.9109 5.63727 4.75727 5.72191 4.64243 5.84732C4.52759 5.97273 4.45793 6.13191 4.44424 6.30022C4.43349 6.47668 4.48599 6.65126 4.59258 6.79351C4.69918 6.93577 4.85311 7.03667 5.02754 7.07862C5.20721 7.10838 5.39147 7.09624 5.5655 7.04318L6.54878 6.84366C6.58411 6.8371 6.62077 6.83447 6.66877 6.82857L6.66944 6.82791Z" fill="#CC0000"/>
</svg>
