<svg width="16" height="19" viewBox="0 0 16 19" fill="none" xmlns="http://www.w3.org/2000/svg">
<path d="M3.5 5.91421C3.5 5.649 3.60536 5.39464 3.79289 5.20711L7.20711 1.79289C7.39464 1.60536 7.649 1.5 7.91421 1.5H11.5C12.0523 1.5 12.5 1.94772 12.5 2.5C12.5 8.09791 12.5 8.62014 12.5 13.4992C12.5 14.0514 12.0523 14.5 11.5 14.5H4.5C3.94772 14.5 3.5 14.0523 3.5 13.5V5.91421Z" fill="#43454A"/>
<path fill-rule="evenodd" clip-rule="evenodd" d="M7.91421 1C7.51639 1 7.13486 1.15803 6.85355 1.43934L3.43934 4.85355C3.15804 5.13486 3 5.51639 3 5.91421V13.5C3 14.3284 3.67157 15 4.5 15H11C12.1046 15 13 14.1046 13 13V2.5C13 1.67157 12.3284 1 11.5 1H7.91421ZM12 2.5C12 2.22386 11.7761 2 11.5 2H8V4.5C8 5.32843 7.32843 6 6.5 6H4V13.5C4 13.7761 4.22386 14 4.5 14H11C11.5523 14 12 13.5523 12 13V2.5ZM7 2.70711L4.70711 5H6.5C6.77614 5 7 4.77614 7 4.5V2.70711Z" fill="#CED0D6"/>
<rect x="9" y="11.686" width="6" height="6.4" fill="white"/>
<path d="M9.00658 18.0184L9.37989 17.9418C9.73121 17.8688 10.0845 17.8034 10.4335 17.7218C10.7429 17.6461 11.0238 17.4827 11.2424 17.2512C11.4609 17.0196 11.6079 16.7299 11.6654 16.4168C11.6871 16.2899 11.6966 16.1612 11.6938 16.0324L11.8158 16.0024C12.1201 15.9354 12.3992 15.7834 12.6205 15.5641C12.8418 15.3447 12.9961 15.0671 13.0657 14.7634C13.0965 14.6483 13.1108 14.5293 13.1083 14.4101C13.1077 14.3781 13.1083 14.3458 13.1083 14.3084C13.1397 14.3008 13.1683 14.2928 13.1973 14.2861C13.5562 14.2057 13.8736 13.9978 14.0906 13.7011C14.2632 13.4732 14.3829 13.2098 14.4408 12.9299C14.4988 12.65 14.4936 12.3607 14.4256 12.0831C14.4186 12.0538 14.4139 12.0234 14.4053 11.9951C14.39 11.9453 14.3566 11.9029 14.3118 11.8763C14.2669 11.8497 14.2137 11.8407 14.1626 11.8511L13.1013 12.0684L11.9397 12.3071L10.6058 12.5811C10.1201 12.6809 9.63421 12.7801 9.14824 12.8788C9.10311 12.8945 9.05532 12.9013 9.00758 12.8988C9.00525 12.8741 9.00192 12.8521 9.00192 12.8308C9.00158 12.4574 9.00258 12.0831 9.00025 11.7094C8.99882 11.6886 9.00356 11.6677 9.01387 11.6495C9.02418 11.6313 9.03961 11.6166 9.05825 11.6071C9.25676 11.4859 9.46946 11.3896 9.69154 11.3204C9.99087 11.2236 10.2977 11.1516 10.6088 11.1051C10.7908 11.0768 10.9738 11.0604 11.1565 11.0401C11.547 11.003 11.9396 10.9916 12.3317 11.0061C12.497 11.0094 12.6624 11.0231 12.8274 11.0384C13.008 11.0554 13.189 11.0751 13.3683 11.1024C13.8293 11.1624 14.2791 11.2886 14.7039 11.4771C14.7912 11.5181 14.8736 11.5704 14.9586 11.6178C14.9724 11.6242 14.9837 11.6349 14.9911 11.6483C14.9984 11.6616 15.0012 11.677 14.9992 11.6921C14.9979 11.7101 14.9992 11.7288 14.9992 11.7464V18.2528C14.9992 18.3685 15.0142 18.3461 14.9119 18.4101C14.707 18.5327 14.4874 18.6287 14.2583 18.6958C13.9482 18.7932 13.6303 18.8635 13.308 18.9058C13.108 18.9325 12.908 18.9545 12.7067 18.9748C12.6144 18.9848 12.5214 18.9865 12.4284 18.9891C12.2404 18.9941 12.0524 19.0028 11.8647 18.9991C11.6528 18.9945 11.4408 18.9795 11.2291 18.9661C10.9472 18.947 10.6668 18.91 10.3895 18.8555C10.0191 18.7925 9.65801 18.6832 9.3149 18.5301C9.2239 18.4868 9.13824 18.4335 9.04925 18.3851C9.03373 18.3779 9.0208 18.3661 9.01222 18.3514C9.00363 18.3366 8.9998 18.3195 9.00125 18.3025C9.00392 18.2258 9.00125 18.1491 9.00225 18.0724C9.00225 18.0561 9.00558 18.0405 9.00758 18.0181L9.00658 18.0184ZM12.3347 14.4678C12.3386 14.5304 12.3284 14.593 12.3047 14.6511C12.2591 14.8064 12.1712 14.9459 12.0508 15.0542C11.9305 15.1625 11.7824 15.2353 11.6231 15.2644C11.1898 15.3578 10.7541 15.4434 10.3192 15.5328L10.1292 15.5708C10.0791 15.5788 10.031 15.5967 9.98792 15.6235C9.94481 15.6503 9.90746 15.6854 9.87807 15.7268C9.84867 15.7681 9.82782 15.8149 9.81671 15.8644C9.80561 15.9139 9.80449 15.9651 9.81341 16.0151C9.82233 16.065 9.84111 16.1127 9.86867 16.1553C9.89622 16.1979 9.93199 16.2346 9.97389 16.2632C10.0158 16.2919 10.063 16.3119 10.1127 16.3221C10.1624 16.3323 10.2137 16.3326 10.2635 16.3228C10.4618 16.2861 10.6588 16.2421 10.8565 16.2018C10.8778 16.1971 10.8991 16.1944 10.9261 16.1901C10.9134 16.3616 10.8495 16.5253 10.7428 16.6601C10.6006 16.8396 10.3974 16.9606 10.1718 17.0001C9.80409 17.0748 9.43656 17.1499 9.06925 17.2254C9.05191 17.2288 9.03391 17.2298 9.01725 17.2321C9.00125 17.1834 8.99692 13.7721 9.01258 13.6888L13.695 12.7278C13.6941 12.7478 13.6923 12.7679 13.6896 12.7878C13.6502 12.9724 13.5657 13.1444 13.4437 13.2884C13.3216 13.4307 13.1533 13.5256 12.9683 13.5564C12.5984 13.6284 12.2291 13.7064 11.8597 13.7821L11.5398 13.8474C11.4555 13.8631 11.3786 13.9061 11.3212 13.9697C11.2638 14.0334 11.229 14.1143 11.2221 14.1998C11.2167 14.2894 11.243 14.3781 11.2963 14.4503C11.3496 14.5225 11.4266 14.5738 11.5138 14.5951C11.6036 14.6102 11.6957 14.604 11.7828 14.5771L12.2744 14.4758C12.2921 14.4724 12.3104 14.4711 12.3344 14.4681L12.3347 14.4678Z" fill="#CC0000"/>
</svg>
